<svg width="658px" height="121.4px" xmlns="http://www.w3.org/2000/svg" viewBox="-79.00502929687497 14.308056640625004 658.0100585937499 121.38388671874999" style="background-color: rgba(0, 0, 0, 0)" preserveAspectRatio="xMidYMid"><defs><linearGradient id="editing-gradient-gradient" x1="0" x2="1" y1="0.5" y2="0.5" gradientUnits="objectBoundingBox"><stop offset="0" stop-color="#776dc5"></stop><stop offset="1" stop-color="#54afaf"></stop></linearGradient></defs><g><g transform="matrix(1.2,0,0,1.4,-30.5,150)"><path d="M 45.5 -37.7 L 31.5 -37.7 L 39.6 -80 L 53.7 -80 L 45.5 -37.7 Z M 101.2 -36.4 L 101.2 -36.4 L 101.2 -36.4 Q 93.5 -36.4 93.5 -42.5 L 93.5 -42.5 L 93.5 -42.5 Q 93.5 -45.1 94.6 -50.2 L 94.6 -50.2 L 94.6 -50.2 Q 95.7 -55.3 96.1 -57.3 L 96.1 -57.3 L 96.1 -57.3 Q 97 -62 97 -63.4 L 97 -63.4 L 97 -63.4 Q 97 -66.7 94.6 -66.7 L 94.6 -66.7 L 94.6 -66.7 Q 93 -66.7 91.4 -64.5 L 91.4 -64.5 L 91.4 -64.5 Q 89.9 -62.3 89.2 -57.9 L 89.2 -57.9 L 85.2 -37.7 L 72.7 -36.4 L 76.2 -53.8 L 76.2 -53.8 Q 76.8 -56.7 77.3 -60 L 77.3 -60 L 77.3 -60 Q 77.8 -63.3 77.8 -63.8 L 77.8 -63.8 L 77.8 -63.8 Q 77.8 -66.7 75.6 -66.7 L 75.6 -66.7 L 75.6 -66.7 Q 74.1 -66.7 72.5 -64.5 L 72.5 -64.5 L 72.5 -64.5 Q 70.9 -62.4 70 -57.9 L 70 -57.9 L 66.1 -37.7 L 53.5 -36.4 L 60.3 -70.4 L 70.7 -71.6 L 69.6 -65.2 L 69.6 -65.2 Q 71.3 -68.6 74.3 -70.1 L 74.3 -70.1 L 74.3 -70.1 Q 77.4 -71.6 82.2 -71.6 L 82.2 -71.6 L 82.2 -71.6 Q 85 -71.6 86.8 -70.3 L 86.8 -70.3 L 86.8 -70.3 Q 88.5 -68.9 89.1 -66.8 L 89.1 -66.8 L 89.1 -66.8 Q 90.2 -69 93 -70.3 L 93 -70.3 L 93 -70.3 Q 95.8 -71.6 99.2 -71.6 L 99.2 -71.6 L 99.2 -71.6 Q 102.6 -71.6 104.3 -70.9 L 104.3 -70.9 L 104.3 -70.9 Q 106 -70.2 107 -68.9 L 107 -68.9 L 107 -68.9 Q 108.8 -66.7 108.8 -62.6 L 108.8 -62.6 L 108.8 -62.6 Q 108.8 -58.6 107 -50.2 L 107 -50.2 L 107 -50.2 Q 106.1 -46.1 106.1 -44.6 L 106.1 -44.6 L 106.1 -44.6 Q 106.1 -43.1 107 -42.2 L 107 -42.2 L 107 -42.2 Q 107.9 -41.3 109.2 -41.2 L 109.2 -41.2 L 109.2 -41.2 Q 108.5 -39 106.3 -37.7 L 106.3 -37.7 L 106.3 -37.7 Q 104.1 -36.4 101.2 -36.4 Z M 116.9 -39.6 L 116.9 -39.6 L 116.9 -39.6 Q 115.4 -41.3 114.7 -43.9 L 114.7 -43.9 L 114.7 -43.9 Q 114 -46.5 114 -50.8 L 114 -50.8 L 114 -50.8 Q 114 -55.1 115.5 -59 L 115.5 -59 L 115.5 -59 Q 117 -62.9 119.6 -65.7 L 119.6 -65.7 L 119.6 -65.7 Q 125.2 -71.6 134.2 -71.6 L 134.2 -71.6 L 134.2 -71.6 Q 137.5 -71.6 139.9 -70.5 L 139.9 -70.5 L 150.8 -71.6 L 146.1 -46.7 L 146.1 -46.7 Q 145.9 -45.9 145.9 -44.5 L 145.9 -44.5 L 145.9 -44.5 Q 145.9 -43.1 146.8 -42.2 L 146.8 -42.2 L 146.8 -42.2 Q 147.6 -41.3 148.9 -41.2 L 148.9 -41.2 L 148.9 -41.2 Q 148.3 -39 145.9 -37.7 L 145.9 -37.7 L 145.9 -37.7 Q 143.6 -36.4 141 -36.4 L 141 -36.4 L 141 -36.4 Q 138.3 -36.4 136.6 -37.4 L 136.6 -37.4 L 136.6 -37.4 Q 134.8 -38.4 134.3 -40.1 L 134.3 -40.1 L 134.3 -40.1 Q 133.3 -38.5 131.1 -37.5 L 131.1 -37.5 L 131.1 -37.5 Q 128.9 -36.4 126 -36.4 L 126 -36.4 L 126 -36.4 Q 123.1 -36.4 120.7 -37.2 L 120.7 -37.2 L 120.7 -37.2 Q 118.4 -38 116.9 -39.6 Z M 130.4 -65.6 L 130.4 -65.6 L 130.4 -65.6 Q 129.6 -64.5 129 -62.5 L 129 -62.5 L 129 -62.5 Q 128.4 -60.6 127.3 -55.3 L 127.3 -55.3 L 127.3 -55.3 Q 126.2 -50.1 126.2 -46.4 L 126.2 -46.4 L 126.2 -46.4 Q 126.2 -42.7 126.8 -41.6 L 126.8 -41.6 L 126.8 -41.6 Q 127.4 -40.5 128.4 -40.5 L 128.4 -40.5 L 128.4 -40.5 Q 130.5 -40.5 132 -42.5 L 132 -42.5 L 132 -42.5 Q 133.5 -44.4 134 -47.9 L 134 -47.9 L 137.4 -66.6 L 137.4 -66.6 Q 136.1 -67.8 134.5 -67.8 L 134.5 -67.8 L 134.5 -67.8 Q 133 -67.8 132 -67.3 L 132 -67.3 L 132 -67.3 Q 131.1 -66.8 130.4 -65.6 Z M 158.6 -64.5 L 158.6 -64.5 L 158.6 -64.5 Q 160.7 -67.5 164 -69.6 L 164 -69.6 L 164 -69.6 Q 167.3 -71.6 171.4 -71.6 L 171.4 -71.6 L 171.4 -71.6 Q 175.4 -71.6 177.3 -70.4 L 177.3 -70.4 L 189.9 -71.6 L 185.5 -47.1 L 185.5 -47.1 Q 183.3 -34.5 178.5 -29.6 L 178.5 -29.6 L 178.5 -29.6 Q 174 -24.9 165.2 -24.9 L 165.2 -24.9 L 165.2 -24.9 Q 158.4 -24.9 154.6 -27 L 154.6 -27 L 154.6 -27 Q 150.8 -29.1 150.8 -32.7 L 150.8 -32.7 L 150.8 -32.7 Q 150.8 -35.3 152.7 -36.8 L 152.7 -36.8 L 152.7 -36.8 Q 154.7 -38.3 157.8 -38.3 L 157.8 -38.3 L 157.8 -38.3 Q 160.5 -38.3 162.5 -37.1 L 162.5 -37.1 L 162.5 -37.1 Q 163.7 -36.4 164.3 -35.5 L 164.3 -35.5 L 164.3 -35.5 Q 162.8 -34.3 162.8 -32.1 L 162.8 -32.1 L 162.8 -32.1 Q 162.8 -29.4 165.4 -29.4 L 165.4 -29.4 L 165.4 -29.4 Q 169.7 -29.4 172.1 -39.5 L 172.1 -39.5 L 172.1 -39.5 Q 172.8 -42.3 173.4 -45 L 173.4 -45 L 173.4 -45 Q 170.5 -41.5 164 -41.5 L 164 -41.5 L 164 -41.5 Q 159.5 -41.5 156.8 -43.7 L 156.8 -43.7 L 156.8 -43.7 Q 154.2 -45.8 154.2 -51 L 154.2 -51 L 154.2 -51 Q 154.2 -54.2 155.3 -57.8 L 155.3 -57.8 L 155.3 -57.8 Q 156.4 -61.4 158.6 -64.5 Z M 166.9 -50.8 L 166.9 -50.8 L 166.9 -50.8 Q 166.9 -46.4 169.1 -46.4 L 169.1 -46.4 L 169.1 -46.4 Q 170.7 -46.4 172.1 -48.1 L 172.1 -48.1 L 172.1 -48.1 Q 173.3 -49.4 173.7 -51.4 L 173.7 -51.4 L 177 -67.9 L 177 -67.9 Q 176.7 -67.9 176.4 -68.1 L 176.4 -68.1 L 176.4 -68.1 Q 175.7 -68.3 174.9 -68.3 L 174.9 -68.3 L 174.9 -68.3 Q 171 -68.3 168.7 -61.9 L 168.7 -61.9 L 168.7 -61.9 Q 166.9 -56.9 166.9 -50.8 Z M 218.3 -48.5 L 218.3 -48.5 L 218.3 -48.5 Q 219.9 -47.4 219.9 -45 L 219.9 -45 L 219.9 -45 Q 219.9 -42.6 218.7 -41.1 L 218.7 -41.1 L 218.7 -41.1 Q 217.4 -39.6 215.5 -38.5 L 215.5 -38.5 L 215.5 -38.5 Q 211.4 -36.4 206.9 -36.4 L 206.9 -36.4 L 206.9 -36.4 Q 202.5 -36.4 199.9 -37.4 L 199.9 -37.4 L 199.9 -37.4 Q 197.3 -38.4 195.6 -40.1 L 195.6 -40.1 L 195.6 -40.1 Q 192.2 -43.5 192.2 -49.7 L 192.2 -49.7 L 192.2 -49.7 Q 192.2 -59.4 197.5 -65.3 L 197.5 -65.3 L 197.5 -65.3 Q 203.1 -71.6 212.9 -71.6 L 212.9 -71.6 L 212.9 -71.6 Q 219 -71.6 222 -69.1 L 222 -69.1 L 222 -69.1 Q 224.2 -67.2 224.2 -64 L 224.2 -64 L 224.2 -64 Q 224.2 -52.8 204.8 -52.8 L 204.8 -52.8 L 204.8 -52.8 Q 204.5 -51.1 204.5 -49.7 L 204.5 -49.7 L 204.5 -49.7 Q 204.5 -46.7 205.8 -45.6 L 205.8 -45.6 L 205.8 -45.6 Q 207.1 -44.5 209.6 -44.5 L 209.6 -44.5 L 209.6 -44.5 Q 212 -44.5 214.6 -45.6 L 214.6 -45.6 L 214.6 -45.6 Q 217.2 -46.7 218.3 -48.5 Z M 205.2 -55.5 L 205.2 -55.5 L 205.2 -55.5 Q 209.8 -55.5 212.4 -58.3 L 212.4 -58.3 L 212.4 -58.3 Q 215 -61 215 -65.3 L 215 -65.3 L 215 -65.3 Q 215 -66.8 214.5 -67.6 L 214.5 -67.6 L 214.5 -67.6 Q 213.9 -68.4 212.8 -68.4 L 212.8 -68.4 L 212.8 -68.4 Q 211.7 -68.4 210.8 -68 L 210.8 -68 L 210.8 -68 Q 209.9 -67.5 208.9 -66.1 L 208.9 -66.1 L 208.9 -66.1 Q 206.6 -62.9 205.2 -55.5 Z M 245.5 -60.2 L 245.5 -60.2 L 245.5 -60.2 Q 246.4 -62.5 246.4 -64.6 L 246.4 -64.6 L 246.4 -64.6 Q 246.4 -68.4 243.4 -68.4 L 243.4 -68.4 L 243.4 -68.4 Q 241.8 -68.4 240.4 -66.9 L 240.4 -66.9 L 240.4 -66.9 Q 239.1 -65.5 239.1 -63.7 L 239.1 -63.7 L 239.1 -63.7 Q 239.1 -62.4 240.2 -61.4 L 240.2 -61.4 L 240.2 -61.4 Q 241.6 -60 245.4 -57.7 L 245.4 -57.7 L 245.4 -57.7 Q 249.2 -55.4 250.6 -53.5 L 250.6 -53.5 L 250.6 -53.5 Q 252.1 -51.6 252.1 -49 L 252.1 -49 L 252.1 -49 Q 252.1 -46.4 250.8 -44.1 L 250.8 -44.1 L 250.8 -44.1 Q 249.6 -41.7 247.3 -40 L 247.3 -40 L 247.3 -40 Q 242.5 -36.4 234.8 -36.4 L 234.8 -36.4 L 234.8 -36.4 Q 230.7 -36.4 227.5 -38.6 L 227.5 -38.6 L 227.5 -38.6 Q 224.3 -40.7 224.3 -43.2 L 224.3 -43.2 L 224.3 -43.2 Q 224.3 -45.7 226.1 -47.2 L 226.1 -47.2 L 226.1 -47.2 Q 227.9 -48.7 230.6 -48.7 L 230.6 -48.7 L 230.6 -48.7 Q 233.3 -48.7 235 -47.6 L 235 -47.6 L 235 -47.6 Q 234.1 -45.5 234.1 -44.1 L 234.1 -44.1 L 234.1 -44.1 Q 234.1 -39.9 237.7 -39.9 L 237.7 -39.9 L 237.7 -39.9 Q 239.3 -39.9 240.3 -40.9 L 240.3 -40.9 L 240.3 -40.9 Q 241.3 -41.8 241.3 -43.5 L 241.3 -43.5 L 241.3 -43.5 Q 241.3 -46.7 235.8 -50.2 L 235.8 -50.2 L 235.8 -50.2 Q 231.3 -53.1 230.3 -54.3 L 230.3 -54.3 L 230.3 -54.3 Q 228.6 -56.3 228.6 -58.9 L 228.6 -58.9 L 228.6 -58.9 Q 228.6 -61.5 229.8 -63.9 L 229.8 -63.9 L 229.8 -63.9 Q 231 -66.3 233.2 -68.1 L 233.2 -68.1 L 233.2 -68.1 Q 237.9 -71.6 246 -71.6 L 246 -71.6 L 246 -71.6 Q 250.2 -71.6 252.7 -70 L 252.7 -70 L 252.7 -70 Q 255.1 -68.3 255.1 -65.5 L 255.1 -65.5 L 255.1 -65.5 Q 255.1 -62.7 253.4 -61.1 L 253.4 -61.1 L 253.4 -61.1 Q 251.7 -59.5 248.7 -59.5 L 248.7 -59.5 L 248.7 -59.5 Q 246.6 -59.5 245.5 -60.2 Z M 296.6 -58.3 L 309.5 -59.5 L 309.5 -59.5 Q 304.9 -49.4 304.9 -37.7 L 304.9 -37.7 L 304.9 -37.7 Q 303.2 -36.4 300.7 -36.4 L 300.7 -36.4 L 300.7 -36.4 Q 298.1 -36.4 296.5 -37.6 L 296.5 -37.6 L 296.5 -37.6 Q 294.9 -38.8 294.6 -40 L 294.6 -40 L 294.6 -40 Q 293 -38.4 290.4 -37.4 L 290.4 -37.4 L 290.4 -37.4 Q 287.8 -36.4 285.1 -36.4 L 285.1 -36.4 L 285.1 -36.4 Q 282.3 -36.4 279.9 -37.3 L 279.9 -37.3 L 279.9 -37.3 Q 277.5 -38.2 275.7 -40.2 L 275.7 -40.2 L 275.7 -40.2 Q 271.6 -44.6 271.6 -52.8 L 271.6 -52.8 L 271.6 -52.8 Q 271.6 -65.6 278.4 -73.3 L 278.4 -73.3 L 278.4 -73.3 Q 285.5 -81.2 298 -81.2 L 298 -81.2 L 298 -81.2 Q 306.6 -81.2 309.7 -76.8 L 309.7 -76.8 L 309.7 -76.8 Q 310.6 -75.3 310.6 -73.7 L 310.6 -73.7 L 310.6 -73.7 Q 310.6 -72 309.9 -70.5 L 309.9 -70.5 L 309.9 -70.5 Q 309.2 -69.1 308 -67.9 L 308 -67.9 L 308 -67.9 Q 305.2 -65.4 301.9 -65.4 L 301.9 -65.4 L 301.9 -65.4 Q 300.5 -65.4 299.2 -65.8 L 299.2 -65.8 L 299.2 -65.8 Q 299.5 -67.7 299.5 -70 L 299.5 -70 L 299.5 -70 Q 299.5 -72.2 299.3 -73.2 L 299.3 -73.2 L 299.3 -73.2 Q 299.2 -74.3 298.8 -75.1 L 298.8 -75.1 L 298.8 -75.1 Q 298 -76.8 296.1 -76.8 L 296.1 -76.8 L 296.1 -76.8 Q 294.3 -76.8 292.3 -74.9 L 292.3 -74.9 L 292.3 -74.9 Q 290.3 -72.9 288.7 -69.7 L 288.7 -69.7 L 288.7 -69.7 Q 285.2 -62.5 285.2 -53.9 L 285.2 -53.9 L 285.2 -53.9 Q 285.2 -49.9 286.7 -47.1 L 286.7 -47.1 L 286.7 -47.1 Q 288.4 -44.1 291.3 -44.1 L 291.3 -44.1 L 291.3 -44.1 Q 292.3 -44.1 293.2 -44.6 L 293.2 -44.6 L 293.2 -44.6 Q 294.2 -45.1 294.6 -45.5 L 294.6 -45.5 L 296.6 -58.3 Z M 315.5 -39.6 L 315.5 -39.6 L 315.5 -39.6 Q 314 -41.3 313.3 -43.9 L 313.3 -43.9 L 313.3 -43.9 Q 312.6 -46.5 312.6 -50.8 L 312.6 -50.8 L 312.6 -50.8 Q 312.6 -55.1 314.1 -59 L 314.1 -59 L 314.1 -59 Q 315.6 -62.9 318.2 -65.7 L 318.2 -65.7 L 318.2 -65.7 Q 323.7 -71.6 332.8 -71.6 L 332.8 -71.6 L 332.8 -71.6 Q 336.1 -71.6 338.5 -70.5 L 338.5 -70.5 L 349.4 -71.6 L 344.7 -46.7 L 344.7 -46.7 Q 344.5 -45.9 344.5 -44.5 L 344.5 -44.5 L 344.5 -44.5 Q 344.5 -43.1 345.3 -42.2 L 345.3 -42.2 L 345.3 -42.2 Q 346.2 -41.3 347.5 -41.2 L 347.5 -41.2 L 347.5 -41.2 Q 346.8 -39 344.5 -37.7 L 344.5 -37.7 L 344.5 -37.7 Q 342.2 -36.4 339.6 -36.4 L 339.6 -36.4 L 339.6 -36.4 Q 336.9 -36.4 335.2 -37.4 L 335.2 -37.4 L 335.2 -37.4 Q 333.4 -38.4 332.9 -40.1 L 332.9 -40.1 L 332.9 -40.1 Q 331.9 -38.5 329.7 -37.5 L 329.7 -37.5 L 329.7 -37.5 Q 327.5 -36.4 324.6 -36.4 L 324.6 -36.4 L 324.6 -36.4 Q 321.7 -36.4 319.3 -37.2 L 319.3 -37.2 L 319.3 -37.2 Q 317 -38 315.5 -39.6 Z M 329 -65.6 L 329 -65.6 L 329 -65.6 Q 328.2 -64.5 327.6 -62.5 L 327.6 -62.5 L 327.6 -62.5 Q 326.9 -60.6 325.9 -55.3 L 325.9 -55.3 L 325.9 -55.3 Q 324.8 -50.1 324.8 -46.4 L 324.8 -46.4 L 324.8 -46.4 Q 324.8 -42.7 325.4 -41.6 L 325.4 -41.6 L 325.4 -41.6 Q 326 -40.5 327 -40.5 L 327 -40.5 L 327 -40.5 Q 329.1 -40.5 330.6 -42.5 L 330.6 -42.5 L 330.6 -42.5 Q 332.1 -44.4 332.6 -47.9 L 332.6 -47.9 L 336 -66.6 L 336 -66.6 Q 334.7 -67.8 333.1 -67.8 L 333.1 -67.8 L 333.1 -67.8 Q 331.6 -67.8 330.6 -67.3 L 330.6 -67.3 L 330.6 -67.3 Q 329.7 -66.8 329 -65.6 Z M 368.2 -41.2 L 368.2 -41.2 L 368.2 -41.2 Q 366.2 -36.4 359.8 -36.4 L 359.8 -36.4 L 359.8 -36.4 Q 356.6 -36.4 354.6 -38.7 L 354.6 -38.7 L 354.6 -38.7 Q 352.9 -40.5 352.9 -42.6 L 352.9 -42.6 L 352.9 -42.6 Q 352.9 -47.4 355.2 -57.9 L 355.2 -57.9 L 359.8 -82.5 L 372.8 -83.8 L 366.6 -51.4 L 366.6 -51.4 Q 365.5 -46.7 365.5 -45 L 365.5 -45 L 365.5 -45 Q 365.5 -41.4 368.2 -41.2 Z M 388.9 -41.2 L 388.9 -41.2 L 388.9 -41.2 Q 386.9 -36.4 380.6 -36.4 L 380.6 -36.4 L 380.6 -36.4 Q 377.4 -36.4 375.3 -38.7 L 375.3 -38.7 L 375.3 -38.7 Q 373.7 -40.5 373.7 -42.6 L 373.7 -42.6 L 373.7 -42.6 Q 373.7 -47.4 375.9 -57.9 L 375.9 -57.9 L 380.6 -82.5 L 393.6 -83.8 L 387.4 -51.4 L 387.4 -51.4 Q 386.3 -46.7 386.3 -45 L 386.3 -45 L 386.3 -45 Q 386.3 -41.4 388.9 -41.2 Z M 420.3 -48.5 L 420.3 -48.5 L 420.3 -48.5 Q 421.9 -47.4 421.9 -45 L 421.9 -45 L 421.9 -45 Q 421.9 -42.6 420.6 -41.1 L 420.6 -41.1 L 420.6 -41.1 Q 419.4 -39.6 417.4 -38.5 L 417.4 -38.5 L 417.4 -38.5 Q 413.3 -36.4 408.9 -36.4 L 408.9 -36.4 L 408.9 -36.4 Q 404.5 -36.4 401.9 -37.4 L 401.9 -37.4 L 401.9 -37.4 Q 399.3 -38.4 397.6 -40.1 L 397.6 -40.1 L 397.6 -40.1 Q 394.2 -43.5 394.2 -49.7 L 394.2 -49.7 L 394.2 -49.7 Q 394.2 -59.4 399.5 -65.3 L 399.5 -65.3 L 399.5 -65.3 Q 405.1 -71.6 414.9 -71.6 L 414.9 -71.6 L 414.9 -71.6 Q 421 -71.6 424 -69.1 L 424 -69.1 L 424 -69.1 Q 426.2 -67.2 426.2 -64 L 426.2 -64 L 426.2 -64 Q 426.2 -52.8 406.8 -52.8 L 406.8 -52.8 L 406.8 -52.8 Q 406.5 -51.1 406.5 -49.7 L 406.5 -49.7 L 406.5 -49.7 Q 406.5 -46.7 407.8 -45.6 L 407.8 -45.6 L 407.8 -45.6 Q 409.1 -44.5 411.6 -44.5 L 411.6 -44.5 L 411.6 -44.5 Q 414 -44.5 416.6 -45.6 L 416.6 -45.6 L 416.6 -45.6 Q 419.2 -46.7 420.3 -48.5 Z M 407.2 -55.5 L 407.2 -55.5 L 407.2 -55.5 Q 411.7 -55.5 414.4 -58.3 L 414.4 -58.3 L 414.4 -58.3 Q 417 -61 417 -65.3 L 417 -65.3 L 417 -65.3 Q 417 -66.8 416.4 -67.6 L 416.4 -67.6 L 416.4 -67.6 Q 415.9 -68.4 414.8 -68.4 L 414.8 -68.4 L 414.8 -68.4 Q 413.7 -68.4 412.8 -68 L 412.8 -68 L 412.8 -68 Q 411.9 -67.5 410.9 -66.1 L 410.9 -66.1 L 410.9 -66.1 Q 408.5 -62.9 407.2 -55.5 Z M 448.4 -55.7 L 448.4 -55.7 L 448.4 -55.7 Q 450.7 -59.8 450.7 -64 L 450.7 -64 L 450.7 -64 Q 450.7 -66.7 448.7 -66.7 L 448.7 -66.7 L 448.7 -66.7 Q 447.2 -66.7 445.6 -64.1 L 445.6 -64.1 L 445.6 -64.1 Q 443.9 -61.5 443.4 -58.1 L 443.4 -58.1 L 440.1 -37.7 L 426.8 -36.4 L 433.4 -70.4 L 443.9 -71.6 L 442.8 -65.2 L 442.8 -65.2 Q 445.9 -71.6 453 -71.6 L 453 -71.6 L 453 -71.6 Q 456.7 -71.6 458.7 -69.7 L 458.7 -69.7 L 458.7 -69.7 Q 460.7 -67.8 460.7 -63.9 L 460.7 -63.9 L 460.7 -63.9 Q 460.7 -59.9 458.1 -57.4 L 458.1 -57.4 L 458.1 -57.4 Q 455.5 -54.9 451.1 -54.9 L 451.1 -54.9 L 451.1 -54.9 Q 449.2 -54.9 448.4 -55.7 Z M 482.1 -44.9 L 482.1 -44.9 L 482.1 -44.9 Q 478.8 -41.5 472.7 -41.5 L 472.7 -41.5 L 472.7 -41.5 Q 465.1 -41.5 463.5 -47.1 L 463.5 -47.1 L 463.5 -47.1 Q 462.9 -48.7 462.9 -50.6 L 462.9 -50.6 L 462.9 -50.6 Q 462.9 -52.4 463.3 -54.4 L 463.3 -54.4 L 466.3 -70.4 L 479.3 -71.6 L 475.8 -53 L 475.8 -53 Q 475.7 -52.2 475.5 -51.3 L 475.5 -51.3 L 475.5 -51.3 Q 475.3 -50.4 475.3 -49.5 L 475.3 -49.5 L 475.3 -49.5 Q 475.3 -48.5 475.6 -47.9 L 475.6 -47.9 L 475.6 -47.9 Q 475.9 -47.3 476.4 -46.9 L 476.4 -46.9 L 476.4 -46.9 Q 477.2 -46.4 478.5 -46.4 L 478.5 -46.4 L 478.5 -46.4 Q 479.9 -46.4 481.1 -48.1 L 481.1 -48.1 L 481.1 -48.1 Q 482.3 -49.7 482.8 -52.6 L 482.8 -52.6 L 486.4 -70.4 L 499 -71.6 L 494.2 -46.5 L 494.2 -46.5 Q 491.8 -34.2 486.9 -29.3 L 486.9 -29.3 L 486.9 -29.3 Q 484.4 -26.8 481.2 -25.8 L 481.2 -25.8 L 481.2 -25.8 Q 478 -24.9 473.8 -24.9 L 473.8 -24.9 L 473.8 -24.9 Q 467.1 -24.9 463.3 -27 L 463.3 -27 L 463.3 -27 Q 459.4 -29.1 459.4 -32.6 L 459.4 -32.6 L 459.4 -32.6 Q 459.4 -35.2 461.4 -36.7 L 461.4 -36.7 L 461.4 -36.7 Q 463.4 -38.2 466.5 -38.2 L 466.5 -38.2 L 466.5 -38.2 Q 469.2 -38.2 471.2 -37.1 L 471.2 -37.1 L 471.2 -37.1 Q 472.4 -36.4 473 -35.5 L 473 -35.5 L 473 -35.5 Q 471.5 -34.2 471.5 -32.1 L 471.5 -32.1 L 471.5 -32.1 Q 471.5 -29.3 474.1 -29.3 L 474.1 -29.3 L 474.1 -29.3 Q 478.3 -29.3 480.7 -39 L 480.7 -39 L 480.7 -39 Q 481.4 -41.9 482.1 -44.9 Z" fill="url(#editing-gradient-gradient)"></path></g></g><style>text {
  font-size: 64px;
  font-family: Arial Black;
  dominant-baseline: central;
  text-anchor: middle;
}</style></svg>